PathFileType	4	(X/Y/Z)	c:/Users/goper/Files/vsCode/490R/osim_files/C10/C10_SSWS_03.trc
DataRate	CameraRate	NumFrames	NumMarkers	Units                	OrigDataRate	OrigDataStartFrame	OrigNumFrames
250.00	250.00	8	36	mm	250.0	880	2345
                Frame#	Time	LPSIS			LASIS			LTH1			LTH2			LTH3			LTH4			LLFE			LMFE			LSH1			LSH2			LSH3			LSH4			LLMAL			LMMAL			LCAL			LMTP5			LTOE			LMTP1			RPSIS			RASIS			RTH1			RTH2			RTH3			RTH4			RLFE			RMFE			RSH1			RSH2			RSH3			RSH4			RLMAL			RMMAL			RCAL			RMTP1			RTOE			RMTP5		
		X1	Y1	Z1	X2	Y2	Z2	X3	Y3	Z3	X4	Y4	Z4	X5	Y5	Z5	X6	Y6	Z6	X7	Y7	Z7	X8	Y8	Z8	X9	Y9	Z9	X10	Y10	Z10	X11	Y11	Z11	X12	Y12	Z12	X13	Y13	Z13	X14	Y14	Z14	X15	Y15	Z15	X16	Y16	Z16	X17	Y17	Z17	X18	Y18	Z18	X19	Y19	Z19	X20	Y20	Z20	X21	Y21	Z21	X22	Y22	Z22	X23	Y23	Z23	X24	Y24	Z24	X25	Y25	Z25	X26	Y26	Z26	X27	Y27	Z27	X28	Y28	Z28	X29	Y29	Z29	X30	Y30	Z30	X31	Y31	Z31	X32	Y32	Z32	X33	Y33	Z33	X34	Y34	Z34	X35	Y35	Z35	X36	Y36	Z36

880	3.51600	816.50946	990.41656	291.92938	653.68140	999.45184	425.21872	638.83746	766.31073	471.03528	621.11371	722.62946	463.68195	587.94379	784.99738	445.75317	579.08850	739.22821	438.56171	550.33508	493.00967	367.36008	572.27924	489.01575	254.61481	595.54590	393.84338	373.29196	591.50336	350.12994	382.00320	538.91418	399.94431	362.46188	540.21130	350.81180	357.32245	577.06732	84.75412	321.85971	0.00000	0.00000	0.00000	642.86188	39.71101	281.12405	467.06927	31.48118	333.52722	419.96213	54.47522	268.64722	456.20755	28.09218	224.28241	813.97296	986.53168	209.72472	659.59100	965.32513	93.13538	747.39667	701.78479	62.82244	737.83978	659.19678	64.43353	689.03149	710.94751	54.50559	685.40839	666.16547	58.23799	721.25879	441.30539	106.30197	699.92932	423.64847	217.29552	829.85651	432.39801	100.79140	862.62885	403.75363	97.87867	793.16010	380.23694	99.50610	833.16205	362.07788	95.02592	1066.69165	243.32596	139.06032	1049.55750	235.58540	220.25276	1126.21228	284.65259	174.74805	1083.15710	104.41090	226.22943	1058.27844	76.62056	192.87550	1088.37659	107.59793	126.57850
881	3.52000	811.19373	991.03265	292.09891	648.80963	1000.43347	425.84726	635.35602	767.25403	471.34039	618.01373	723.39636	464.34018	584.23505	785.36267	446.06055	575.84619	739.52118	439.21420	548.63501	493.04831	367.85095	570.35992	488.85831	255.26192	594.79236	393.96548	373.88342	591.04163	349.87872	382.73572	538.15350	399.73618	363.23929	539.75537	350.68253	357.96500	577.13019	84.70085	322.07938	0.00000	0.00000	0.00000	642.85132	39.66311	281.25278	467.11600	31.43030	333.65366	420.02200	54.52455	268.77203	456.24615	28.20496	224.37589	809.21716	987.08276	210.04193	654.81256	966.55908	93.18935	739.78748	701.69592	62.55518	729.67004	659.48138	64.86723	680.87811	711.49170	56.54919	677.28528	667.10016	58.92765	709.74921	441.79929	106.98633	689.25586	424.79813	218.58490	818.35767	433.72781	100.96396	850.95557	404.96112	98.19589	781.70050	381.00253	100.71588	821.76404	363.00723	96.00351	1055.90405	246.11276	140.11440	1039.49231	238.66066	220.84363	1117.33191	286.73196	176.21474	1071.65295	106.26909	225.37222	1046.08057	79.23007	191.62505	1076.85291	110.64481	126.01318
882	3.52400	806.08881	991.78888	292.31778	644.12292	1001.78778	426.54956	631.89642	768.22021	471.81470	615.15363	724.25275	465.24750	580.64423	785.74225	446.44482	572.62860	739.83600	439.84668	547.12262	492.92529	368.40598	568.38934	488.78671	255.96440	594.15613	394.10489	374.65085	590.86420	350.49496	383.17148	537.47900	399.54858	363.99435	539.36011	350.56876	358.59000	577.20703	84.65239	322.33398	0.00000	0.00000	0.00000	642.86700	39.58590	281.35501	467.10110	31.36974	333.74042	420.23901	54.52639	269.01187	456.33337	28.36791	224.42511	804.49371	987.78882	210.42059	650.15076	967.85120	93.21769	732.91364	702.60840	62.51922	722.08838	660.30011	64.81681	673.36823	712.55792	57.23500	669.14819	668.20874	59.57116	698.23083	442.48538	107.65255	678.46088	426.06525	219.76863	806.19098	434.64032	101.59914	839.09882	406.07751	98.86015	770.19043	381.87207	101.90400	810.44586	364.08371	97.01591	1045.58301	249.34750	140.84764	1029.59119	241.28305	221.45728	1107.68250	288.57077	177.73972	1059.40454	107.96430	224.63849	1033.35571	81.62772	190.42322	1065.19702	113.56236	125.38293
883	3.52800	801.01819	992.66095	292.54810	639.15442	1002.83826	426.99973	629.26776	768.87335	473.70416	611.70850	724.84338	465.80286	577.16351	786.15820	446.79794	569.37817	740.19507	440.48413	545.73517	492.83716	369.01129	564.40656	489.26016	255.92390	593.43915	394.21774	375.40082	590.44672	350.58746	383.89023	536.84277	399.41714	364.77121	539.01550	350.47086	359.19495	577.27887	84.60863	322.58316	0.00000	0.00000	0.00000	642.82123	39.50896	281.49734	467.07907	31.30269	333.86597	420.16232	54.61324	269.02032	456.30820	28.44767	224.53719	799.70624	988.62952	210.83334	646.22180	969.53851	93.24336	724.87646	702.88196	63.95961	713.32544	660.42657	65.50145	665.72931	713.68671	57.92939	661.01288	669.36902	60.20352	686.76239	443.32687	108.26400	667.68237	427.42737	220.92609	794.75195	436.05560	101.98163	828.29102	408.16925	98.92030	758.81964	382.93454	103.04208	799.08099	365.33810	98.02247	1035.63086	252.69629	141.32028	1017.96198	243.44572	222.09450	1097.16956	289.98569	179.57550	1046.86658	109.05995	223.89079	1020.58606	83.66348	189.12773	1053.42603	116.19334	124.80110
884	3.53200	796.00848	993.69855	292.85150	634.35681	1004.11444	427.43671	624.55206	769.64941	473.83304	608.48248	725.46625	466.34708	573.79297	786.54883	447.15436	566.15955	740.56000	440.96973	544.48053	492.70154	369.71494	565.92670	488.59891	258.22864	592.77161	394.28726	376.06485	590.11359	350.66095	384.54999	536.22845	399.28845	365.54410	538.71204	350.38925	359.77744	577.34015	84.57780	322.81778	0.00000	0.00000	0.00000	642.79675	39.43748	281.61310	467.12479	31.26222	333.94882	420.20767	54.64502	269.14767	456.31104	28.53141	224.59624	794.92072	989.65771	211.29240	640.93585	970.57434	93.18081	717.44830	703.67596	64.58774	705.67786	661.46930	65.37836	658.14886	714.91602	58.55384	652.88501	670.69214	60.69983	675.40735	444.33823	108.86377	656.86615	428.96793	222.03485	782.73956	437.19220	102.68542	815.97223	408.97937	100.01629	747.42535	384.11172	104.09276	787.77234	366.63675	99.07211	1024.65613	254.90956	142.19650	1006.76117	245.06215	222.83784	1086.51868	291.21002	181.30768	1034.08765	110.21262	222.88583	1007.77118	85.07242	187.47957	1041.50171	118.46903	124.20381
885	3.53600	791.00763	994.91907	293.25629	629.28680	1005.19153	427.76941	622.79572	770.04492	474.40234	603.62811	726.60309	467.06531	570.41486	786.90289	447.54974	563.01593	740.85992	441.40857	543.54901	492.54492	370.44080	563.98340	488.61356	259.05521	592.41815	394.59082	376.90784	589.81793	350.80878	385.29190	535.69379	399.16141	366.29852	538.43994	350.32431	360.33496	577.41742	84.56802	323.02823	0.00000	0.00000	0.00000	642.84937	39.42162	281.68735	467.10864	31.25537	334.06287	420.25250	54.72074	269.25552	456.04523	28.66315	224.78851	790.38715	991.03204	211.60243	636.33734	971.99207	93.13383	711.55231	705.73218	62.90057	697.31311	662.15399	65.61797	651.12164	716.61993	57.68225	644.69470	672.07202	61.20647	664.15057	445.52792	109.43764	646.08679	430.62189	223.05740	771.09937	438.62546	103.29558	805.24524	411.25574	100.15707	735.98022	385.35214	105.15477	775.75769	367.65607	100.34329	1013.81244	256.46783	143.15575	995.39893	246.41161	223.56973	1075.21875	291.86099	183.36134	1021.31635	110.67342	222.25710	995.16797	86.58894	186.29651	1029.35657	120.55809	123.59865
886	3.54000	786.03033	996.33148	293.68671	624.53125	1006.37421	428.10577	619.49896	770.58533	474.73874	607.82324	727.53259	464.20041	567.05670	787.20911	447.97552	559.84668	741.14581	441.78967	542.67230	492.46704	371.25293	562.03082	488.66782	259.83392	591.86115	394.77332	377.68286	589.48053	350.94519	385.90759	535.17657	399.08755	367.00992	538.18945	350.27637	360.86505	577.48779	84.56464	323.22046	0.00000	0.00000	0.00000	642.88049	39.42271	281.77069	467.11707	31.22347	334.15042	420.31372	54.77100	269.35165	456.09579	28.74480	224.85352	785.33893	992.25635	212.22508	631.64563	973.42810	93.11874	703.22791	706.08258	63.84015	688.99725	662.99286	65.80838	642.83435	717.75226	59.62556	636.47931	673.59564	61.69340	652.99353	446.85220	110.05653	635.30060	432.32025	223.99628	759.95129	440.26056	103.81322	792.97223	412.06598	101.36383	724.57977	386.72180	106.20210	765.06934	369.45251	101.05303	1002.61804	257.78860	143.95058	983.92340	247.39792	224.34818	1064.28955	292.47690	185.03513	1008.64954	111.27834	221.47762	982.57349	88.08923	185.01843	1017.13507	122.34061	123.05904
887	3.54400	780.99481	997.89905	294.23267	619.40417	1007.33002	428.30035	615.19141	770.95221	474.79703	604.00555	727.98987	464.58932	563.69849	787.45618	448.41022	556.71289	741.38068	442.20023	541.97351	492.34738	372.11072	560.31598	488.69757	260.57370	593.56982	398.93381	387.26187	589.16290	351.14297	386.55246	534.66235	399.03699	367.68484	537.95087	350.24582	361.36514	577.53046	84.55693	323.41922	0.00000	0.00000	0.00000	642.92322	39.47629	281.81790	467.13992	31.21475	334.20746	420.31641	54.80885	269.43411	456.14868	28.87017	224.84062	780.44794	993.71002	212.78322	627.16119	974.72418	93.09205	695.02966	706.70087	64.47733	680.66241	663.94354	65.94911	635.11719	719.27509	60.11572	628.29517	675.23450	62.09784	641.90540	448.35626	110.62035	627.15320	433.42944	225.15315	748.14624	441.60489	104.56353	781.53052	413.62418	102.08334	713.17792	388.20535	107.17795	753.10248	370.59451	102.23855	991.38531	258.89648	144.83556	972.42133	248.13760	225.16826	1053.36902	292.79163	186.55855	995.75037	111.80173	221.04117	969.50903	89.13988	184.19229	1004.61749	123.84045	122.59737
